<?xml version="1.0" standalone="no"?>
<!DOCTYPE svg PUBLIC "-//W3C//DTD SVG 20010904//EN"
 "http://www.w3.org/TR/2001/REC-SVG-20010904/DTD/svg10.dtd">
<svg version="1.0" xmlns="http://www.w3.org/2000/svg"
 width="1287.000000pt" height="843.000000pt" viewBox="0 0 1287.000000 843.000000"
 preserveAspectRatio="xMidYMid meet">

<g transform="translate(0.000000,843.000000) scale(0.100000,-0.100000)"
fill="#000000" stroke="none">
<path d="M4795 8424 c-1322 -87 -2501 -796 -3191 -1920 l-78 -127 18 -51 c10
-28 43 -114 72 -191 30 -77 66 -171 81 -210 15 -38 29 -63 31 -55 10 33 126
258 179 349 195 332 413 601 697 859 357 325 759 567 1216 731 276 99 561 161
895 196 97 10 460 13 565 4 463 -37 855 -137 1253 -320 733 -336 1365 -949
1732 -1679 15 -30 29 -56 30 -58 2 -2 46 17 98 42 53 26 98 46 100 46 2 0 43
18 89 40 l85 40 -76 147 c-277 534 -657 984 -1133 1344 -587 444 -1249 709
-1988 794 -130 15 -552 27 -675 19z m212 -200 c-3 -3 -12 -4 -19 -1 -8 3 -5 6
6 6 11 1 17 -2 13 -5z m86 -1 c-7 -2 -19 -2 -25 0 -7 3 -2 5 12 5 14 0 19 -2
13 -5z"/>
<path d="M3146 7064 c-199 -44 -374 -163 -486 -330 -54 -81 -72 -135 -435
-1253 -174 -537 -173 -529 -140 -608 l16 -38 278 835 c153 459 292 862 308
896 111 217 354 367 620 381 l102 6 6 -26 c4 -14 8 -40 8 -58 2 -30 -1 -32
-71 -59 -231 -90 -349 -184 -428 -339 -29 -59 -334 -971 -334 -1001 0 -15 54
-36 317 -124 174 -58 320 -102 324 -98 3 4 18 57 33 117 15 61 54 217 88 347
l61 238 271 2 271 3 18 55 c57 172 68 225 68 330 0 125 -19 198 -89 335 -60
119 -170 231 -287 292 -187 98 -367 131 -519 97z"/>
<path d="M711 6748 c-352 -43 -630 -289 -697 -618 -10 -53 -7 -201 6 -266 10
-50 80 -246 347 -969 24 -66 55 -149 68 -185 13 -36 37 -101 53 -145 16 -44
55 -150 86 -235 31 -85 63 -171 71 -190 8 -19 30 -80 50 -135 82 -226 139
-373 168 -432 76 -156 228 -278 437 -349 76 -26 287 -27 380 -1 225 61 353
147 455 307 83 128 125 270 125 420 0 116 -15 181 -79 346 -43 112 -110 291
-362 974 -28 74 -56 151 -64 170 -8 19 -50 134 -95 255 -45 121 -101 272 -125
335 -24 63 -60 159 -79 214 -44 119 -58 146 -106 211 -68 90 -139 149 -261
213 -151 81 -230 98 -378 80z m217 -72 c202 -79 344 -263 407 -527 14 -61 57
-190 95 -287 37 -97 125 -328 195 -512 98 -258 155 -391 249 -580 121 -242
218 -469 251 -585 57 -197 11 -427 -124 -615 -54 -75 -172 -190 -196 -190 -6
0 -27 17 -47 38 l-36 37 62 112 c81 144 109 230 114 353 3 87 0 105 -31 205
-55 172 -179 533 -314 910 -36 103 -5 104 -348 -16 -60 -21 -175 -61 -255 -89
-80 -29 -163 -58 -185 -65 -114 -38 -160 -59 -177 -81 -24 -29 -77 -33 -100
-6 -9 9 -27 49 -41 87 -14 39 -64 171 -111 295 -178 463 -268 707 -281 763
-10 43 -11 81 -5 151 18 181 80 305 219 433 93 86 271 171 401 193 73 12 195
0 258 -24z"/>
<path d="M388 6401 c-69 -67 -168 -303 -168 -398 0 -82 5 -98 166 -515 16 -44
21 -57 109 -288 37 -96 71 -179 75 -184 11 -11 67 11 74 29 2 7 -16 67 -40
132 -67 175 -152 395 -196 508 -95 244 -92 229 -92 365 -1 141 10 185 75 309
22 40 38 75 37 76 -2 2 -20 -14 -40 -34z"/>
<path d="M9137 5985 l-57 -75 62 0 c58 0 67 3 140 51 43 29 77 54 75 56 -6 5
-140 43 -152 43 -5 -1 -36 -34 -68 -75z"/>
<path d="M5249 5811 c-203 -65 -336 -302 -273 -488 36 -105 119 -180 234 -209
231 -59 468 100 511 343 28 159 -67 311 -224 358 -67 20 -179 18 -248 -4z
m200 -179 c51 -38 66 -69 66 -141 0 -58 -4 -75 -30 -117 -38 -61 -93 -94 -158
-94 -94 0 -157 60 -157 150 0 76 18 126 61 168 64 62 160 76 218 34z"/>
<path d="M6120 5812 c-135 -45 -212 -109 -266 -218 -31 -61 -38 -88 -42 -153
-10 -173 68 -283 230 -327 100 -26 256 -9 340 38 40 22 42 27 70 123 15 55 37
130 47 168 l19 67 -158 0 -157 0 -6 -29 c-3 -16 -9 -40 -13 -55 -6 -26 -6 -26
55 -26 l61 0 -6 -27 c-22 -88 -29 -98 -77 -107 -133 -26 -227 77 -197 214 16
72 91 151 160 170 61 17 155 7 213 -21 l47 -23 59 64 c69 75 70 71 -39 123
-59 29 -75 32 -175 34 -85 2 -122 -1 -165 -15z"/>
<path d="M3507 5804 c-4 -11 -32 -113 -63 -229 -31 -115 -71 -264 -89 -330
l-32 -120 199 -3 c222 -3 279 6 381 60 73 39 131 102 170 186 27 58 31 78 32
152 0 73 -4 93 -28 142 -32 66 -86 111 -162 134 -34 11 -108 18 -226 21 -167
5 -177 5 -182 -13z m322 -182 c71 -38 89 -122 46 -209 -43 -85 -129 -127 -246
-121 l-56 3 45 173 45 172 66 0 c45 0 77 -6 100 -18z"/>
<path d="M4307 5814 c-3 -5 -21 -70 -40 -144 -20 -74 -56 -209 -80 -300 -25
-91 -47 -177 -51 -192 -3 -14 -9 -33 -12 -42 -6 -15 5 -16 96 -14 l103 3 27
100 27 100 48 0 49 0 41 -102 40 -103 108 0 c125 0 119 -15 57 131 -22 51 -40
96 -40 99 0 4 21 15 47 25 59 23 121 79 144 130 39 84 15 208 -49 254 -63 45
-107 53 -313 58 -109 3 -199 2 -202 -3z m347 -185 c61 -48 16 -142 -76 -160
-62 -12 -158 -11 -158 1 0 6 10 49 21 95 l21 85 83 0 c68 0 87 -4 109 -21z"/>
<path d="M6717 5813 c-3 -5 -26 -87 -52 -183 -61 -223 -70 -331 -33 -400 49
-90 166 -137 313 -127 138 10 220 51 280 139 39 58 79 177 144 426 l39 152
-104 0 c-57 0 -104 -2 -104 -5 0 -22 -117 -429 -132 -458 -37 -73 -133 -100
-203 -57 -60 37 -59 81 5 320 28 101 50 188 50 192 0 10 -197 10 -203 1z"/>
<path d="M7526 5803 c-3 -10 -44 -162 -91 -338 -47 -176 -88 -326 -90 -332 -3
-10 60 -13 294 -13 l299 0 19 73 20 72 -188 5 c-103 3 -191 8 -195 12 -4 4 -1
31 7 60 l14 53 184 5 185 5 13 50 c23 92 36 85 -166 85 l-179 0 17 58 17 57
196 3 195 2 17 63 c10 34 20 70 22 80 5 16 -13 17 -290 17 -272 0 -295 -1
-300 -17z"/>
<path d="M8237 5769 c-9 -30 -48 -175 -87 -324 -39 -148 -75 -282 -80 -297
l-9 -28 103 0 104 0 6 28 c4 15 16 62 28 105 l20 77 48 0 47 0 40 -102 39
-103 111 -3 111 -3 -49 117 c-27 64 -48 118 -47 119 2 1 19 8 38 15 112 44
162 107 168 211 5 86 -1 110 -39 153 -54 63 -115 77 -340 83 l-197 6 -15 -54z
m359 -142 c46 -40 32 -112 -27 -142 -36 -19 -193 -33 -202 -18 -5 8 19 115 38
171 3 8 29 12 84 12 69 0 83 -3 107 -23z"/>
<path d="M9010 5798 c-9 -23 -180 -659 -180 -671 0 -4 45 -7 99 -7 86 0 100 2
105 18 3 9 26 96 51 192 26 96 64 239 86 317 21 79 39 150 39 158 0 12 -17 15
-95 15 -90 0 -96 -1 -105 -22z"/>
<path d="M9520 5708 c-41 -62 -141 -206 -221 -322 -80 -116 -153 -223 -163
-238 l-18 -28 108 0 109 0 33 50 32 50 145 0 144 0 7 -50 7 -50 108 0 c60 0
109 3 109 8 0 4 -23 156 -50 337 -28 182 -50 336 -50 343 0 9 -29 12 -112 12
l-113 -1 -75 -111z m144 -198 c4 -36 9 -86 12 -112 l6 -48 -97 0 c-115 0 -114
-13 -12 147 79 123 80 124 91 13z"/>
<path d="M7755 4975 c-156 -29 -262 -83 -370 -190 -229 -227 -260 -605 -66
-794 158 -154 453 -187 678 -76 64 32 183 125 183 144 0 4 -39 39 -87 77 -134
107 -118 100 -160 63 -57 -50 -108 -69 -188 -69 -85 0 -135 24 -180 88 -29 42
-30 48 -30 145 0 92 3 107 28 157 55 106 145 174 249 186 80 9 134 -9 192 -67
27 -27 51 -49 53 -49 3 0 65 25 139 56 121 51 134 59 128 78 -25 83 -131 192
-220 225 -105 40 -227 49 -349 26z"/>
<path d="M12289 4975 c-253 -48 -445 -211 -525 -447 -26 -74 -29 -96 -29 -208
1 -107 4 -133 24 -180 73 -176 229 -276 451 -287 129 -6 225 12 327 62 65 32
183 125 183 145 0 4 -47 44 -105 89 l-106 83 -36 -33 c-57 -49 -109 -69 -186
-69 -144 0 -217 79 -217 234 0 97 27 169 87 236 55 61 122 97 195 106 82 9
135 -9 191 -67 39 -40 52 -49 70 -43 23 7 250 104 255 109 2 2 -5 24 -16 48
-24 53 -91 130 -144 163 -97 62 -274 87 -419 59z"/>
<path d="M2413 4963 c-46 -2 -83 -7 -83 -11 -1 -14 143 -1077 146 -1080 1 -2
71 -6 156 -9 141 -5 154 -4 169 13 9 11 177 259 374 552 l356 532 -177 -2
-178 -3 -215 -352 c-157 -255 -218 -348 -223 -335 -4 9 -16 150 -28 312 -11
162 -23 316 -26 343 l-6 47 -91 -2 c-51 -1 -129 -4 -174 -5z"/>
<path d="M3662 4953 c-3 -10 -70 -254 -148 -543 -122 -456 -139 -526 -125
-532 9 -4 78 -7 154 -7 122 -1 138 1 144 17 17 43 290 1068 286 1075 -2 4 -72
7 -154 7 -133 0 -150 -2 -157 -17z"/>
<path d="M4136 4959 c-3 -8 -17 -59 -31 -114 -14 -55 -28 -108 -31 -117 -5
-17 6 -18 134 -18 77 0 153 -3 169 -6 l29 -6 -107 -401 c-60 -221 -108 -408
-109 -414 0 -10 37 -13 155 -13 l154 0 11 38 c6 20 57 208 113 417 l102 380
171 3 171 2 32 121 c18 67 31 122 29 124 -2 2 -225 6 -495 10 -416 7 -493 6
-497 -6z"/>
<path d="M5175 4429 c-203 -297 -371 -544 -373 -550 -2 -5 62 -9 162 -9 l166
0 51 80 51 80 227 -2 226 -3 7 -40 c4 -22 10 -57 13 -79 l6 -38 164 3 c90 2
165 6 168 9 3 3 -32 249 -76 548 l-81 542 -171 0 -170 -1 -370 -540z m475 32
c11 -95 20 -184 20 -197 l0 -24 -150 0 c-82 0 -150 2 -150 4 0 5 161 258 225
354 15 23 29 41 31 39 2 -1 12 -81 24 -176z"/>
<path d="M6455 4958 c-29 -89 -285 -1071 -280 -1076 4 -4 192 -8 420 -10 l412
-4 7 24 c3 13 19 71 35 131 16 59 29 108 28 109 -1 1 -119 4 -263 7 l-260 6
107 400 c60 220 108 406 109 413 0 9 -37 12 -155 12 -116 0 -157 -3 -160 -12z"/>
<path d="M8571 4933 c-6 -21 -71 -265 -146 -542 -74 -277 -132 -507 -129 -510
3 -3 192 -7 419 -9 l414 -4 10 39 c6 21 22 78 35 128 14 49 23 92 20 95 -3 3
-120 6 -260 8 -162 2 -254 7 -254 13 0 6 47 186 105 402 58 215 105 397 105
404 0 10 -36 13 -155 13 l-154 0 -10 -37z"/>
<path d="M9590 4948 c-18 -40 -289 -1062 -284 -1068 3 -3 74 -5 157 -5 l151 0
143 530 c78 292 143 538 143 548 0 15 -14 17 -150 17 -146 0 -151 -1 -160 -22z"/>
<path d="M10107 4963 c-2 -5 -68 -248 -147 -541 -118 -440 -141 -535 -129
-543 18 -11 286 -12 293 -1 3 5 42 143 86 308 45 164 85 302 89 306 4 4 72
-128 151 -295 79 -166 148 -308 153 -314 7 -9 47 -13 141 -13 91 0 137 4 148
13 10 7 67 204 153 527 76 283 140 523 143 533 4 16 -8 17 -151 17 -140 0
-156 -2 -161 -17 -3 -10 -39 -144 -81 -297 -42 -154 -78 -282 -80 -285 -4 -4
-59 107 -240 487 l-58 122 -153 0 c-84 0 -155 -3 -157 -7z"/>
<path d="M11397 4963 c-14 -26 -288 -1075 -283 -1081 8 -8 306 -16 306 -9 0 3
63 238 139 523 77 286 143 531 146 547 l7 27 -155 0 c-86 0 -158 -3 -160 -7z"/>
<path d="M4730 3720 c-42 -8 -105 -36 -121 -56 -10 -12 -7 -20 15 -43 l28 -29
44 25 c52 29 89 25 106 -13 17 -38 -9 -65 -152 -154 -89 -56 -127 -86 -133
-105 -18 -53 -12 -55 167 -55 l164 0 6 24 c3 13 9 31 12 40 5 13 -10 16 -108
18 l-113 3 102 58 c152 86 186 128 167 205 -16 61 -95 97 -184 82z"/>
<path d="M5170 3721 c-112 -36 -180 -128 -188 -256 -3 -61 -1 -74 20 -105 26
-40 98 -80 141 -80 92 0 198 80 230 174 49 145 -6 257 -134 271 -24 2 -55 1
-69 -4z m94 -116 c30 -46 14 -139 -34 -197 -22 -26 -34 -32 -65 -32 -75 0 -99
87 -50 184 29 57 46 69 96 70 28 0 41 -6 53 -25z"/>
<path d="M5639 3715 c-54 -17 -120 -83 -150 -148 -25 -56 -26 -167 -1 -209 44
-75 163 -97 252 -48 118 66 178 255 111 349 -43 60 -129 83 -212 56z m107
-106 c47 -53 2 -200 -70 -228 -34 -13 -39 -13 -64 6 -22 16 -28 29 -30 68 -4
60 20 127 55 155 34 26 84 26 109 -1z"/>
<path d="M6123 3719 c-48 -9 -94 -31 -112 -53 -11 -13 -9 -21 9 -46 25 -36 24
-35 59 -11 64 46 121 35 121 -23 0 -40 -4 -44 -154 -136 -94 -59 -122 -81
-133 -107 -7 -19 -11 -38 -8 -43 4 -6 77 -10 171 -10 l164 0 10 26 c20 52 18
53 -100 56 l-110 3 106 60 c133 75 164 108 164 174 0 57 -31 96 -83 106 -18 4
-39 8 -47 10 -8 1 -34 -1 -57 -6z"/>
<path d="M6551 3719 c-42 -8 -121 -51 -121 -66 0 -4 12 -19 26 -35 l27 -27 28
19 c44 32 83 36 108 11 22 -22 22 -50 -1 -78 -6 -7 -68 -49 -139 -94 -108 -68
-130 -86 -138 -112 -4 -18 -5 -35 -1 -40 3 -4 80 -6 171 -5 l164 3 11 35 12
35 -112 5 -111 5 106 62 c150 87 188 139 155 216 -23 57 -96 82 -185 66z"/>
<path d="M7710 3715 c-56 -18 -126 -84 -152 -144 -50 -117 -25 -224 62 -269
113 -58 252 12 311 158 19 48 17 147 -4 187 -35 65 -131 96 -217 68z m103
-103 c12 -11 17 -30 17 -69 0 -122 -94 -208 -161 -147 -18 16 -20 28 -17 86 3
57 8 73 34 105 43 53 85 61 127 25z"/>
<path d="M3385 3708 c-2 -7 -18 -65 -35 -128 -41 -155 -38 -146 -67 -180 -28
-34 -65 -39 -101 -14 -20 14 -24 13 -57 -13 l-36 -28 26 -22 c63 -55 185 -50
242 10 17 18 36 42 42 54 11 21 91 308 91 325 0 14 -100 9 -105 -4z"/>
<path d="M3927 3593 c-129 -113 -146 -132 -146 -160 -2 -62 1 -63 121 -63 105
0 109 -1 104 -20 -3 -11 -9 -29 -12 -40 -5 -18 -1 -20 49 -20 l53 0 10 38 c7
30 14 38 37 40 19 2 31 11 38 28 14 38 11 44 -16 44 -14 0 -25 3 -25 8 0 7 55
220 66 255 5 15 -3 17 -64 17 l-69 0 -146 -127z m153 34 c0 -8 -49 -180 -53
-183 -3 -3 -41 -4 -86 -2 l-81 3 102 92 c89 79 118 102 118 90z"/>
<path d="M4353 3702 c-52 -15 -53 -16 -53 -53 l0 -37 36 10 c20 5 38 8 40 5 4
-3 -59 -249 -82 -319 -5 -16 1 -18 50 -18 31 0 56 2 56 5 0 2 25 96 55 208 30
112 55 206 55 210 0 12 -103 5 -157 -11z"/>
<path d="M6952 3699 c-88 -44 -146 -147 -146 -261 -1 -95 62 -153 164 -152 87
1 155 49 180 127 37 116 -87 185 -196 108 -26 -18 -48 -30 -50 -28 -9 9 53
113 79 131 30 22 109 28 154 12 18 -7 24 -2 38 24 24 46 10 54 -93 58 -73 3
-94 0 -130 -19z m80 -216 c44 -40 1 -132 -62 -133 -31 0 -44 8 -59 38 -36 67
64 146 121 95z"/>
<path d="M3526 3489 c-3 -17 -6 -35 -6 -40 0 -11 177 -12 183 -1 3 4 8 22 12
40 l7 32 -95 0 -94 0 -7 -31z"/>
<path d="M7267 3513 c-3 -5 -8 -23 -12 -40 l-7 -33 91 0 c89 0 92 1 101 26 20
52 17 54 -79 54 -50 0 -92 -3 -94 -7z"/>
<path d="M8440 3203 c-54 -159 -176 -429 -249 -551 -17 -29 -31 -55 -31 -58 0
-2 -29 -50 -65 -105 -36 -55 -65 -102 -65 -104 0 -4 -220 -297 -229 -305 -3
-3 -37 -41 -76 -85 -117 -133 -185 -203 -293 -301 -112 -102 -299 -254 -312
-254 -7 0 -44 64 -186 325 -267 489 -279 510 -316 528 -42 21 -76 16 -110 -16
-22 -21 -56 -100 -223 -527 -42 -107 -88 -222 -101 -255 -51 -121 -134 -336
-134 -348 0 -26 -19 13 -43 88 -30 93 -160 500 -222 695 -24 74 -79 248 -124
385 -44 138 -96 302 -116 365 -38 122 -50 141 -95 160 -36 15 -94 -2 -115 -33
-13 -21 -63 -211 -150 -577 -20 -85 -39 -162 -41 -170 -2 -8 -37 -150 -77
-315 -41 -165 -105 -426 -142 -580 -38 -154 -72 -284 -76 -289 -5 -5 -11 -1
-15 10 -14 38 -403 1023 -474 1199 -52 129 -76 158 -130 158 -54 0 -81 -23
-116 -100 -19 -40 -50 -108 -70 -150 -43 -91 -89 -191 -132 -283 -16 -36 -52
-113 -80 -171 -27 -58 -62 -134 -78 -168 -27 -62 -28 -63 -63 -58 -20 2 -198
37 -396 77 l-360 72 -95 72 c-514 387 -911 912 -1171 1545 -9 21 -13 23 -57
16 -85 -14 -176 -12 -262 6 -47 9 -93 20 -103 24 -15 6 -13 -5 14 -80 253
-718 776 -1412 1406 -1868 49 -36 68 -42 285 -88 597 -127 851 -179 882 -179
63 0 69 11 281 467 54 117 100 212 101 210 1 -1 125 -333 274 -737 149 -404
280 -754 290 -777 32 -73 118 -93 169 -40 23 26 26 35 281 1017 105 404 196
752 202 774 l12 39 16 -49 c9 -27 111 -361 226 -743 220 -728 221 -732 282
-744 30 -6 80 12 99 34 7 8 133 298 282 644 l270 630 98 -205 c200 -419 213
-443 256 -459 37 -14 40 -13 140 37 560 280 1132 911 1493 1647 81 166 204
460 204 489 0 10 -55 33 -169 70 -93 31 -171 56 -173 56 -2 0 -15 -30 -28 -67z
m-2987 -830 c-7 -2 -21 -2 -30 0 -10 3 -4 5 12 5 17 0 24 -2 18 -5z m-102 -46
c-10 -9 -11 -8 -5 6 3 10 9 15 12 12 3 -3 0 -11 -7 -18z m-34 -99 c-3 -8 -6
-5 -6 6 -1 11 2 17 5 13 3 -3 4 -12 1 -19z m1404 -300 c30 -58 19 -56 -12 3
-15 27 -23 46 -18 43 5 -3 19 -23 30 -46z m-208 -3 c-3 -9 -8 -14 -10 -11 -3
3 -2 9 2 15 9 16 15 13 8 -4z"/>
</g>
</svg>
